<svg width="18" height="16" viewBox="0 0 18 16" fill="none" xmlns="http://www.w3.org/2000/svg">
<path d="M17.8177 2.4253C17.1841 2.7152 16.5023 2.91075 15.7869 2.99826C16.5173 2.5481 17.0774 1.83505 17.3415 0.984432C16.6583 1.40182 15.9019 1.70469 15.0963 1.86818C14.4515 1.16089 13.5325 0.718658 12.5155 0.718658C10.5631 0.718658 8.98007 2.34823 8.98007 4.35846C8.98007 4.64332 9.0112 4.92098 9.07172 5.18783C6.13309 5.03586 3.5275 3.58707 1.78356 1.38489C1.4792 1.9222 1.30498 2.54738 1.30498 3.21506C1.30498 4.47766 1.92909 5.59189 2.87785 6.24444C2.29852 6.22536 1.75312 6.0615 1.2763 5.78888C1.27595 5.80401 1.27595 5.81949 1.27595 5.83498C1.27595 7.59816 2.49478 9.06892 4.11243 9.40384C3.81577 9.48667 3.50336 9.53132 3.18081 9.53132C2.95272 9.53132 2.73127 9.50863 2.51542 9.46578C2.96566 10.9117 4.27125 11.9643 5.81824 11.9935C4.60815 12.9698 3.08391 13.5518 1.42708 13.5518C1.14196 13.5518 0.86034 13.5345 0.583618 13.5006C2.14879 14.5338 4.00713 15.136 6.00365 15.136C12.5075 15.136 16.0636 9.59002 16.0636 4.78017C16.0636 4.62243 16.0604 4.46506 16.0538 4.30876C16.7444 3.79666 17.344 3.15528 17.8177 2.4253Z" fill="#515151"/>
</svg>
